<?xml version="1.0" encoding="iso-8859-1"?>
<!-- Generator: Adobe Illustrator 19.1.0, SVG Export Plug-In . SVG Version: 6.00 Build 0)  -->
<svg version="1.1" id="Capa_1" xmlns="http://www.w3.org/2000/svg" xmlns:xlink="http://www.w3.org/1999/xlink" x="0px" y="0px"
	 viewBox="0 0 64.496 64.496" style="enable-background:new 0 0 64.496 64.496;" xml:space="preserve">
<g>
	<g id="group-12svg">
		<path id="path-1_3_" style="fill:#FF917B;" d="M11.518,39.556h4.966c0.229,0,1.354-0.341,3.907-2.895
			c5.019-5.02,10.387-4.82,16.888,0.38l0.301,0.299l0.096,0.404c0.314,1.233,0.879,2.754,1.331,3.414
			c1.238,0.004,2.512-0.109,2.914-0.292c0.319-0.711,0.309-3.619,0.301-5.761c-0.012-3.456-0.027-7.371,0.693-10.389
			c0.2-0.842,0.41-1.638,0.605-2.38c0.421-1.6,1.058-4.016,0.714-4.408c-0.005-0.001-0.354-0.262-2.012,0.154
			c-5.313,1.33-10.554,2.201-12.92-0.382c-1.258-1.375-1.417-3.459-0.472-6.19c2.999-8.67,8.134-7.186,10.89-6.388
			c0.66,0.191,1.285,0.371,1.674,0.371c3.057,0,8.626,1.534,11.442,5.758c0.488,0.729,0.988,1.385,1.471,2.016
			c2.145,2.801,4.169,5.445,5.265,14.209c0.286,2.286,0.572,4.325,0.831,6.167c0.922,6.571,1.531,10.913,0.453,15.225
			c-0.985,3.94-0.695,5.318-0.631,5.547l0.694,1.013l-1.193,0.586c-0.083,0.042-8.452,4.158-16.299,6.774
			c-3.27,1.092-7.318,1.708-11.584,1.708c-7.096,0-14.798-1.708-20.543-5.794l-0.216-0.2l-2.517-3.007l0,0"/>
		<path id="path-2_3_" d="M27.843,62.996c-8.303,0-15.907-2.156-21.412-6.071c-0.054-0.038-0.104-0.079-0.152-0.123l-0.216-0.201
			c-0.06-0.056-0.116-0.116-0.166-0.182L3.38,53.162c-0.507-0.655-0.386-1.597,0.27-2.104c0.656-0.506,1.597-0.385,2.104,0.269
			l2.493,3.208c4.928,3.472,12.062,5.461,19.596,5.461c4.012,0,7.958-0.579,11.11-1.63c6.928-2.311,14.309-5.824,15.825-6.558
			c-0.189-0.683-0.353-2.403,0.623-6.304c1.008-4.031,0.414-8.256-0.484-14.652c-0.259-1.849-0.547-3.896-0.833-6.19
			c-1.045-8.359-2.863-10.733-4.967-13.482c-0.444-0.579-0.995-1.299-1.527-2.094c-2.474-3.711-7.567-5.093-10.196-5.093
			c-0.605,0-1.327-0.209-2.091-0.43C32.55,2.765,28.782,1.674,26.247,9c-0.751,2.172-0.697,3.748,0.162,4.687
			c1.853,2.022,7.092,1.03,11.449-0.06c1.514-0.38,2.517-0.373,3.159,0.021c0.128,0.079,0.246,0.177,0.345,0.29
			c0.755,0.861,0.586,2.067-0.388,5.767c-0.196,0.744-0.403,1.527-0.6,2.356c-0.677,2.842-0.664,6.657-0.652,10.023
			c0.014,3.798-0.043,5.521-0.433,6.389c-0.149,0.332-0.414,0.599-0.746,0.75c-0.818,0.374-2.564,0.42-3.542,0.419
			c-0.493-0.002-0.953-0.246-1.232-0.652c-0.605-0.883-1.226-2.644-1.546-3.908l-0.025-0.109
			c-5.965-4.718-10.382-4.866-14.746-0.501c-2.047,2.046-3.718,3.084-4.968,3.084H7.518c-0.828,0-1.5-0.671-1.5-1.5
			c0-0.828,0.672-1.5,1.5-1.5h4.963c-0.032-0.002,0.85-0.206,2.849-2.206c5.501-5.501,11.678-5.371,18.886,0.394
			c0.078,0.063,0.15,0.134,0.215,0.211l0.301,0.362c0.155,0.185,0.262,0.404,0.313,0.639l0.096,0.434
			c0.206,0.807,0.502,1.645,0.76,2.236c0.283-0.013,0.534-0.03,0.744-0.05c0.089-1.151,0.081-3.307,0.077-4.47
			c-0.013-3.545-0.027-7.551,0.734-10.74c0.203-0.853,0.415-1.66,0.614-2.414c0.15-0.568,0.421-1.6,0.597-2.436
			c-0.026,0.007-0.053,0.014-0.08,0.02c-5.762,1.442-11.493,2.341-14.391-0.823c-1.659-1.814-1.923-4.402-0.783-7.694
			C26.878-2,33.367-0.12,36.137,0.681c0.394,0.114,1.054,0.305,1.261,0.312c2.904,0,9.298,1.343,12.686,6.426
			c0.478,0.714,0.997,1.392,1.414,1.936c2.172,2.837,4.416,5.769,5.562,14.935c0.285,2.278,0.57,4.309,0.828,6.145
			c0.947,6.744,1.572,11.2,0.423,15.796c-0.705,2.819-0.698,4.159-0.661,4.61l0.506,0.739c0.246,0.359,0.324,0.807,0.214,1.227
			c-0.11,0.422-0.398,0.774-0.789,0.966l-1.192,0.588c-0.073,0.036-8.484,4.182-16.487,6.85
			C36.403,62.379,32.232,62.996,27.843,62.996z"/>
	</g>
</g>
<g>
</g>
<g>
</g>
<g>
</g>
<g>
</g>
<g>
</g>
<g>
</g>
<g>
</g>
<g>
</g>
<g>
</g>
<g>
</g>
<g>
</g>
<g>
</g>
<g>
</g>
<g>
</g>
<g>
</g>
</svg>
