<?xml version="1.0" encoding="iso-8859-1"?>
<!-- Generator: Adobe Illustrator 19.0.0, SVG Export Plug-In . SVG Version: 6.00 Build 0)  -->
<svg version="1.1" id="Layer_1" xmlns="http://www.w3.org/2000/svg" xmlns:xlink="http://www.w3.org/1999/xlink" x="0px" y="0px"
	 viewBox="0 0 495 495" style="enable-background:new 0 0 495 495;" xml:space="preserve">
<g>
	<path style="fill:#3D9AE2;" d="M185.62,362.985c7.421,0,11.281-1.571,15.905-4.467v-49.956h91.646v-40h-91.646v-43.583h91.646v-40
		h-91.646v-70c0-30.832,25.083-55.915,55.915-55.915c16.585,0,32.224,7.44,42.756,19.897c5.224-12.847,13.153-24.315,23.08-33.692
		c-17.586-16.56-41.097-26.206-65.837-26.206c-52.887,0-95.915,43.027-95.915,95.915v238.142c1.54,0.982,2.977,1.95,4.335,2.864
		C172.57,360.495,176.26,362.985,185.62,362.985z"/>
	<path style="fill:#1A6FB0;" d="M300.196,78.962c-4.525,11.127-7.025,23.285-7.025,36.017v243.357
		c4.756,3.017,8.625,4.649,16.199,4.649c9.36,0,13.05-2.49,19.76-7c1.271-0.856,2.613-1.759,4.041-2.675V114.979
		c0-30.832,25.083-55.915,55.914-55.915c30.832,0,55.915,25.083,55.915,55.915v90h40v-90c0-52.887-43.027-95.915-95.915-95.915
		c-25.454,0-48.62,9.97-65.809,26.206C313.349,54.647,305.42,66.115,300.196,78.962z"/>
	<path style="fill:#00E7F0;" d="M433.12,435.935c-9.36,0-13.06-2.49-19.76-7.01c-8.67-5.84-20.54-13.83-42.12-13.83
		c-21.57,0-33.44,7.99-42.11,13.83c-6.71,4.52-10.4,7.01-19.76,7.01s-13.06-2.49-19.77-7.01c-8.66-5.84-20.53-13.83-42.11-13.83v40
		c9.36,0,13.06,2.49,19.76,7.01c8.67,5.83,20.54,13.83,42.12,13.83c21.57,0,33.44-8,42.11-13.83c6.71-4.52,10.4-7.01,19.76-7.01
		s13.06,2.49,19.77,7.01c8.66,5.83,20.53,13.83,42.11,13.83s33.45-8,42.11-13.83c6.71-4.52,10.41-7.01,19.77-7.01v-40
		c-21.58,0-33.45,7.99-42.11,13.83C446.18,433.445,442.48,435.935,433.12,435.935z"/>
	<path style="fill:#00E7F0;" d="M452.89,355.975c-6.71,4.52-10.41,7.01-19.77,7.01s-13.06-2.49-19.76-7.01
		c-8.67-5.83-20.54-13.83-42.12-13.83c-18.417,0-29.752,5.826-38.069,11.165c-1.428,0.917-2.77,1.82-4.041,2.675
		c-6.71,4.51-10.4,7-19.76,7c-7.574,0-11.443-1.632-16.199-4.649c-1.121-0.711-2.291-1.498-3.571-2.361
		c-8.66-5.83-20.53-13.83-42.11-13.83v40c9.36,0,13.06,2.49,19.76,7.01c8.67,5.84,20.54,13.83,42.12,13.83
		c21.57,0,33.44-7.99,42.11-13.83c6.71-4.52,10.4-7.01,19.76-7.01s13.06,2.49,19.77,7.01c8.66,5.84,20.53,13.83,42.11,13.83
		s33.45-7.99,42.11-13.83c6.71-4.52,10.41-7.01,19.77-7.01v-40C473.42,342.145,461.55,350.145,452.89,355.975z"/>
	<path style="fill:#44FFE8;" d="M205.38,428.925c-6.71,4.52-10.4,7.01-19.76,7.01s-13.05-2.49-19.76-7.01
		c-8.67-5.84-20.54-13.83-42.11-13.83c-21.58,0-33.45,7.99-42.12,13.83c-6.7,4.52-10.4,7.01-19.76,7.01s-13.05-2.49-19.76-7.01
		c-8.67-5.84-20.53-13.83-42.11-13.83v40c9.36,0,13.05,2.49,19.76,7.01c8.67,5.83,20.54,13.83,42.11,13.83
		c21.58,0,33.45-8,42.11-13.83c6.71-4.52,10.41-7.01,19.77-7.01s13.05,2.49,19.76,7.01c8.66,5.83,20.53,13.83,42.11,13.83
		s33.45-8,42.11-13.83c6.71-4.52,10.4-7.01,19.76-7.01v-40C225.92,415.095,214.05,423.085,205.38,428.925z"/>
	<path style="fill:#44FFE8;" d="M205.38,355.985c-1.39,0.934-2.647,1.776-3.855,2.533c-4.624,2.896-8.484,4.467-15.905,4.467
		c-9.36,0-13.05-2.49-19.76-7c-1.358-0.915-2.795-1.883-4.335-2.864c-8.292-5.286-19.584-10.976-37.775-10.976
		c-21.58,0-33.45,8-42.12,13.84c-6.7,4.51-10.4,7-19.76,7s-13.05-2.49-19.76-7c-8.67-5.84-20.53-13.84-42.11-13.84v40
		c9.36,0,13.05,2.49,19.76,7.01c8.67,5.84,20.54,13.83,42.11,13.83c21.58,0,33.45-7.99,42.11-13.83c6.71-4.52,10.41-7.01,19.77-7.01
		s13.05,2.49,19.76,7.01c8.66,5.84,20.53,13.83,42.11,13.83s33.45-7.99,42.11-13.83c6.71-4.52,10.4-7.01,19.76-7.01v-40
		C225.92,342.145,214.05,350.145,205.38,355.985z"/>
</g>
<g>
</g>
<g>
</g>
<g>
</g>
<g>
</g>
<g>
</g>
<g>
</g>
<g>
</g>
<g>
</g>
<g>
</g>
<g>
</g>
<g>
</g>
<g>
</g>
<g>
</g>
<g>
</g>
<g>
</g>
</svg>
